<?xml version="1.0" encoding="UTF-8"?><svg id="Camada_2" xmlns="http://www.w3.org/2000/svg" viewBox="0 0 47.27 47.37"><defs><style>.cls-1{fill:#afb3a8;}</style></defs><g id="Camada_2-2"><g id="XWYseN"><path class="cls-1" d="M30.16,46.42v-17.45h5.08l.74-5.91h-5.82v-4.76c0-.28.42-1.09.64-1.3.21-.19,1.08-.6,1.34-.6h4.02v-5.36l-2.72-.19c-3.12-.18-6.31.23-8.16,3.02-.49.73-1.22,2.55-1.22,3.4v5.63l-.14.14h-4.94v5.91h5.08v18.24c-.39.23-1.14.16-1.62.14C1.41,46.53-7.91,19.81,8.05,5.88c16.42-14.33,41.83-.58,39,21-1.2,9.18-8,17.03-16.89,19.54Z"/></g></g></svg>