<?xml version="1.0" encoding="UTF-8"?><svg id="Camada_2" xmlns="http://www.w3.org/2000/svg" viewBox="0 0 47.31 47.31"><defs><style>.cls-1{fill:#afb3a8;}</style></defs><g id="Camada_2-2"><g id="_8uBPJR"><path class="cls-1" d="M6.85,40.36C-5.23,28.24-.67,7.47,15.3,1.54c18.38-6.83,36.61,10.26,30.97,29.02-5.12,17.03-26.8,22.45-39.41,9.8ZM19,10.13c-6.37.28-8.71,2.83-8.94,9.16-.1,2.78-.1,6,0,8.78.24,6.47,2.72,8.95,9.19,9.19,2.78.1,6,.1,8.78,0,6.46-.24,8.95-2.73,9.19-9.19.1-2.78.1-6,0-8.78-.24-6.48-2.72-8.95-9.19-9.19-2.87-.11-6.16-.09-9.03.03Z"/><path class="cls-1" d="M23.43,12.53c1.78,0,3.85-.03,5.61.06,6.47.36,5.64,5.18,5.67,10.12.01,2.09.13,4.27,0,6.37-.37,6.57-5.43,5.64-10.4,5.67-1.98.01-4.09.12-6.1,0-6.4-.36-5.64-5.02-5.67-9.94-.01-2.17-.14-4.46,0-6.64.4-6.55,5.88-5.65,10.88-5.66ZM30.54,14.83c-.39.07-.87.44-1.07.78-.85,1.45.89,3.11,2.29,2.2,1.5-.97.61-3.28-1.22-2.97ZM22.6,16.78c-4.65.53-7.25,5.91-5.2,10.05,2.78,5.6,11.26,4.83,12.93-1.21,1.39-5.02-2.64-9.41-7.73-8.84Z"/><path class="cls-1" d="M23.06,19.18c6.11-.74,6.93,8.52.99,9.02-5.9.5-6.73-8.33-.99-9.02Z"/></g></g></svg>