<?xml version="1.0" encoding="UTF-8"?><svg id="Camada_2" xmlns="http://www.w3.org/2000/svg" viewBox="0 0 47.3 47.3"><defs><style>.cls-1{fill:#afb3a8;}</style></defs><g id="Camada_2-2"><g id="OlMtVc"><path class="cls-1" d="M6.85,40.36C-5.23,28.24-.67,7.47,15.29,1.54c18.38-6.83,36.61,10.26,30.96,29.02-5.12,17.03-26.8,22.45-39.41,9.8ZM13.36,10.13c-3.66.44-3.57,5.74.25,5.98,4.78.29,4.66-6.56-.25-5.98ZM37.48,35.77v-11.41c0-.74-.61-2.51-.97-3.19-1.46-2.74-4.84-3.75-7.72-2.82-1.41.45-2.23,1.36-3.14,2.45v-2.4h-5.73v17.36h5.73v-9.93c0-2.19,2.18-3.84,4.27-3.07,1.02.38,1.82,1.74,1.82,2.8v10.2h5.73ZM16.8,35.77v-17.22l-.14-.14h-5.54l-.14.14v17.22h5.82Z"/></g></g></svg>